<svg width="96" height="96" viewBox="0 0 96 96" fill="none" xmlns="http://www.w3.org/2000/svg">
  <rect width="96" height="96" rx="20" fill="#0A0B3B"/>
  <path
    d="M28 20H42C45.3137 20 48 22.6863 48 26V76H36C32.6863 76 30 73.3137 30 70V26C30 22.6863 30.6863 20 28 20Z"
    fill="#1EA4FF"
  />
  <path
    d="M48 56C48 44.9543 56.9543 36 68 36C79.0457 36 88 44.9543 88 56V76H68C56.9543 76 48 67.0457 48 56Z"
    fill="#1EA4FF"
  />
  <path
    d="M51 38C53.2091 38 55 36.2091 55 34C55 31.7909 53.2091 30 51 30C48.7909 30 47 31.7909 47 34C47 36.2091 48.7909 38 51 38Z"
    fill="#0A0B3B"
  />
  <path
    d="M54.5 12C59.1944 17.5 59.5 25 59.5 31C55.5 32.5 52 36 50.5 40C45.5 35.5 42.5 31 38 26C44 22 49 17.5 54.5 12Z"
    fill="#1EA4FF"
  />
  <path
    d="M44 46L58 60L52 66L38 52L44 46Z"
    fill="#1EA4FF"
  />
</svg>
